<?xml version="1.0" standalone="no"?><!DOCTYPE svg PUBLIC "-//W3C//DTD SVG 1.1//EN" "http://www.w3.org/Graphics/SVG/1.1/DTD/svg11.dtd"><svg t="1762512502613" class="icon" viewBox="0 0 1025 1024" version="1.1" xmlns="http://www.w3.org/2000/svg" p-id="4807" xmlns:xlink="http://www.w3.org/1999/xlink" width="48.046875" height="48"><path d="M369.757236 547.382923a34.35898 34.35898 0 1 1 0-68.661074 109.106827 109.106827 0 0 0 109.277484-108.594856V292.477973a175.66313 175.66313 0 0 1 51.197156-124.465974 178.222988 178.222988 0 0 1 124.636631-52.789956h3.925116a34.35898 34.35898 0 0 1 0.910171 68.661075h-3.583801a109.448142 109.448142 0 0 0-107.798455 108.594855v77.64902a178.05233 178.05233 0 0 1-178.450531 177.25593z m289.719015 363.499806h-4.323315a178.166102 178.166102 0 0 1-124.636631-52.733071 175.606244 175.606244 0 0 1-51.197156-124.522859v-77.592134a109.049942 109.049942 0 0 0-109.277485-108.594856 34.35898 34.35898 0 1 1 0-68.71796 178.05233 178.05233 0 0 1 178.393645 177.312816V733.854341a109.33437 109.33437 0 0 0 108.082884 108.594856h3.356258a34.35898 34.35898 0 0 1-0.455085 68.661075z m0-363.499806H369.757236a34.35898 34.35898 0 1 1 0-68.71796h289.719015a34.35898 34.35898 0 1 1 0.113772 68.71796z m-341.314371 109.960113H80.663963A80.493306 80.493306 0 0 1 0 577.191045V448.799956a80.493306 80.493306 0 0 1 80.607077-80.095106h237.554803A80.493306 80.493306 0 0 1 398.768957 448.799956v128.391089a80.493306 80.493306 0 0 1-80.550191 80.151991zM80.663963 437.42281a11.377146 11.377146 0 0 0-11.377146 11.377146v128.334203a11.377146 11.377146 0 0 0 11.377146 11.377146h237.554803a11.377146 11.377146 0 0 0 11.377145-11.377146V448.856841a11.377146 11.377146 0 0 0-11.377145-11.377145H80.663963z m797.879229-148.699295h-108.082884a144.375979 144.375979 0 1 1 0-288.695072h108.082884a144.375979 144.375979 0 1 1 0 288.695072z m-108.082884-219.977112a75.658019 75.658019 0 1 0 0 151.316038h108.082884a75.658019 75.658019 0 1 0 0-151.316038h-108.082884z m108.082884 588.596633h-108.082884a144.375979 144.375979 0 1 1 0-288.695072h108.082884a144.375979 144.375979 0 1 1 0 288.695072z m-108.082884-219.977112a75.658019 75.658019 0 1 0 0 151.259152h108.082884a75.658019 75.658019 0 1 0 0-151.259152h-108.082884zM878.600078 1023.971557h-108.082885a144.375979 144.375979 0 1 1 0-288.695072h108.082885a144.375979 144.375979 0 1 1 0 288.695072z m-108.082885-219.977112a75.658019 75.658019 0 1 0 0 151.259152h108.082885a75.658019 75.658019 0 1 0 0-151.259152h-108.082885z" p-id="4808" fill="#ffffff"></path></svg>