<?xml version="1.0" standalone="no"?><!DOCTYPE svg PUBLIC "-//W3C//DTD SVG 1.1//EN" "http://www.w3.org/Graphics/SVG/1.1/DTD/svg11.dtd"><svg t="1762512610742" class="icon" viewBox="0 0 1024 1024" version="1.1" xmlns="http://www.w3.org/2000/svg" p-id="7230" xmlns:xlink="http://www.w3.org/1999/xlink" width="48" height="48"><path d="M379 96c71.797 0 130 58.203 130 130 0 38.905-17.092 73.816-44.174 97.64l29.603 59.062a131.062 131.062 0 0 1 18.903-1.366c40.751 0 77.122 18.752 100.957 48.096l71.028-24.852c10.761-60.947 63.981-107.244 128.015-107.244 71.797 0 130 58.203 130 130s-58.203 130-130 130c-50.979 0-95.103-29.344-116.406-72.062l-53.795 18.822a132.6 132.6 0 0 1 0.201 7.24c0 16.947-3.245 33.136-9.144 47.982l112.772 90.881c19.575-11.805 42.514-18.597 67.04-18.597 71.797 0 130 58.203 130 130s-58.203 130-130 130-130-58.203-130-130c0-18.111 3.705-35.355 10.396-51.02l-111.19-89.604c-20.18 12.887-44.154 20.358-69.874 20.358-25.631 0-49.529-7.42-69.666-20.226L321.682 731.428C333.314 750.9 340 773.669 340 798c0 71.797-58.203 130-130 130S80 869.797 80 798s58.203-130 130-130c18.119 0 35.371 3.708 51.041 10.404l131.5-118.923c-5.94-14.89-9.209-31.136-9.209-48.145 0-36.553 15.086-69.581 39.371-93.2l-31.432-62.71A131.66 131.66 0 0 1 379 356c-71.797 0-130-58.203-130-130S307.203 96 379 96zM210 748c-27.614 0-50 22.386-50 50s22.386 50 50 50 50-22.386 50-50-22.386-50-50-50z m604-36.398c-27.614 0-50 22.385-50 50 0 27.614 22.386 50 50 50s50-22.386 50-50c0-27.615-22.386-50-50-50z m-0.668-334.266c-27.614 0-50 22.386-50 50s22.386 50 50 50 50-22.386 50-50-22.386-50-50-50zM379 176c-27.614 0-50 22.386-50 50s22.386 50 50 50 50-22.386 50-50-22.386-50-50-50z" p-id="7231" fill="#ffffff"></path></svg>